<svg width="440" height="111" viewBox="0 0 440 111" fill="none" xmlns="http://www.w3.org/2000/svg">
<path d="M0 1.45569V32.6942V48.2638V79.5027H15.6358V63.8504V48.2638H34.4503L41.9745 32.6942H15.6358V17.0257H49.5483L57.0738 1.45569H0Z" fill="url(#paint0_linear_100_15)"/>
<path d="M102.929 44.7354L106.267 37.5041L111.942 49.8825L111.944 49.8834L120.568 67.4858H120.63C122.509 71.4037 124.387 75.386 126.283 79.3039H144.509L106.107 0.0340576L67.7939 79.3039H85.9847C87.4575 76.2796 88.9405 73.2751 90.3945 70.2605L90.4133 70.2205C90.8592 69.2937 91.3046 68.3665 91.7441 67.4361L91.7745 67.4499L102.929 44.7349V44.7354Z" fill="url(#paint1_linear_100_15)"/>
<path d="M189.811 56.2462H170.32C170.32 62.7738 173.2 68.3447 178.92 72.9724C184.662 77.6166 191.547 79.9477 199.658 79.9477C207.708 79.9477 214.593 77.6166 220.334 72.9724C226.075 68.3447 228.956 62.7738 228.956 56.2462C228.956 51.8328 227.566 48.1957 224.891 45.387C220.272 40.593 213.571 36.8576 206.135 35.1232C200.341 33.7349 188.294 30.7483 188.149 24.6598C187.893 13.9109 209.445 14.2249 209.445 24.6106H228.894C228.894 18.1147 226.014 12.5452 220.272 7.89957C214.531 3.25535 207.647 0.925659 199.597 0.925659C191.486 0.925659 184.6 3.25535 178.88 7.89957C173.139 12.5452 170.258 18.1147 170.258 24.6106C170.258 28.9247 171.587 32.5112 174.202 35.4031C178.635 40.2956 185.194 44.23 192.323 46.2131C199.012 48.0721 210.872 49.5936 210.872 56.1469C210.872 66.466 189.811 66.9597 189.811 56.2462Z" fill="url(#paint2_linear_100_15)"/>
<path d="M376.771 0V79.5019H392.407V36.3139L439.216 80.9564V1.45491H423.58V44.5938L376.771 0Z" fill="url(#paint3_linear_100_15)"/>
<path d="M299.757 1.07507C277.968 1.07507 260.304 18.7381 260.304 40.5277C260.304 62.3173 277.967 79.9808 299.757 79.9808C321.547 79.9808 339.21 62.3178 339.21 40.5277C339.21 18.7381 321.547 1.07507 299.757 1.07507ZM276.038 40.5277C276.038 27.428 286.657 16.8088 299.757 16.8088C312.857 16.8088 323.476 27.4276 323.476 40.5277C323.476 53.6274 312.857 64.2467 299.757 64.2467C286.658 64.2467 276.038 53.6279 276.038 40.5277Z" fill="url(#paint4_linear_100_15)"/>
<path d="M101.759 63.7343H126.889L128.727 67.4858H128.789C129.547 69.0648 130.303 70.6554 131.063 72.2468V79.3039H94.1436C95.6169 76.2796 97.0998 73.2751 98.5533 70.2605L98.5722 70.2205C99.0185 69.2938 99.4635 68.3666 99.9039 67.4362L99.9342 67.45L101.759 63.7334V63.7343Z" fill="url(#paint5_linear_100_15)"/>
<path d="M0 102.384C0 107.208 3.88757 111 8.68717 111C10.8229 111 12.9108 110.255 14.5422 108.672C14.6626 108.552 14.6626 108.36 14.5422 108.263L14.1345 107.856C14.0384 107.784 13.8945 107.784 13.7506 107.904C12.3104 109.104 10.7512 109.92 8.68717 109.92C4.48746 109.92 1.19978 106.512 1.19978 102.384C1.19978 98.2327 4.48746 94.8011 8.68717 94.8011C10.6551 94.8011 12.3826 95.5453 13.7506 96.769C13.8945 96.9129 14.0149 96.9368 14.1584 96.7929L14.5422 96.3852C14.6626 96.2652 14.6383 96.0731 14.5183 95.9535C12.9586 94.5372 11.135 93.7213 8.68717 93.7213C3.88757 93.7213 0 97.585 0 102.385V102.384ZM25.9847 110.447C25.9847 110.616 26.1291 110.76 26.2969 110.76H26.7285C26.9685 110.76 27.1123 110.616 27.1123 110.447V104.28H31.5281C31.8402 104.28 32.1041 104.28 32.4158 104.256L35.8956 110.544C35.9678 110.687 36.0634 110.76 36.2312 110.76H36.9754C37.2153 110.76 37.2636 110.52 37.1432 110.327L33.6394 104.112C35.9195 103.464 37.5992 101.52 37.5992 99.0964C37.5992 96.1687 35.1753 93.9613 32.248 93.9613H26.2964C26.1043 93.9613 25.9843 94.1051 25.9843 94.2734V110.447H25.9847ZM27.1367 103.272V95.065H32.1763C34.5037 95.065 36.4477 96.8168 36.4477 99.0964C36.4477 101.473 34.5037 103.272 32.2002 103.272H27.1367V103.272ZM49.1378 110.447C49.1378 110.616 49.2821 110.76 49.4499 110.76H59.073C59.2408 110.76 59.3847 110.616 59.3847 110.447V110.064C59.3847 109.896 59.2408 109.752 59.073 109.752H50.2898V102.648H57.8967C58.0645 102.648 58.2088 102.505 58.2088 102.337V101.928C58.2088 101.76 58.0645 101.616 57.8967 101.616H50.2898V94.9928H59.073C59.2408 94.9928 59.3847 94.8489 59.3847 94.6811V94.2734C59.3847 94.1047 59.2408 93.9613 59.073 93.9613H49.4499C49.2821 93.9613 49.1378 94.1051 49.1378 94.2734V110.447ZM68.8115 110.76H69.4831C69.6513 110.76 69.7713 110.64 69.8191 110.544L71.7388 106.128H80.9058L82.8494 110.544C82.8977 110.64 83.0172 110.76 83.1854 110.76H83.8092C84.0731 110.76 84.0731 110.616 84.0253 110.471L76.7057 93.7691C76.634 93.6252 76.5135 93.6013 76.394 93.6013H76.3218C76.2019 93.6013 76.0819 93.673 76.0336 93.7691L68.6423 110.471C68.5706 110.663 68.6423 110.76 68.8106 110.76H68.8115ZM72.1709 105.192L76.3467 95.521H76.3945L80.4981 105.192H72.1709ZM95.876 110.447C95.876 110.616 96.0199 110.76 96.1877 110.76H96.6193C96.8593 110.76 97.0036 110.616 97.0036 110.447V94.9933H101.611C101.803 94.9933 101.923 94.8494 101.923 94.6816V94.2738C101.923 94.1051 101.803 93.9617 101.611 93.9617H91.292C91.1238 93.9617 90.9799 94.0817 90.9799 94.2738V94.6338C90.9799 94.8498 91.0521 94.9937 91.292 94.9937H95.8756V110.448L95.876 110.447ZM112.214 110.447C112.214 110.616 112.358 110.76 112.526 110.76H113.03C113.198 110.76 113.366 110.64 113.366 110.447V94.2734C113.366 94.1047 113.222 93.9613 113.054 93.9613H112.526C112.358 93.9613 112.214 94.1051 112.214 94.2734V110.447ZM130.855 110.784C130.879 110.856 130.975 111 131.119 111H131.239C131.383 111 131.479 110.903 131.527 110.784L138.894 94.2968C138.99 94.1047 138.894 93.9613 138.678 93.9613H138.054C137.91 93.9613 137.814 94.0573 137.79 94.129L131.239 109.032C131.215 109.032 131.191 109.032 131.191 109.032L124.711 94.129C124.687 94.0573 124.591 93.9613 124.447 93.9613H123.8C123.584 93.9613 123.512 94.0812 123.608 94.2734L130.855 110.784ZM149.184 110.447C149.184 110.616 149.328 110.76 149.496 110.76H159.119C159.287 110.76 159.431 110.616 159.431 110.447V110.064C159.431 109.896 159.287 109.752 159.119 109.752H150.336V102.648H157.943C158.111 102.648 158.256 102.505 158.256 102.337V101.928C158.256 101.76 158.111 101.616 157.943 101.616H150.336V94.9928H159.119C159.287 94.9928 159.431 94.8489 159.431 94.6811V94.2734C159.431 94.1047 159.287 93.9613 159.119 93.9613H149.496C149.328 93.9613 149.184 94.1051 149.184 94.2734V110.447ZM186.712 110.447C186.712 110.616 186.856 110.76 187.024 110.76H192.351C195.471 110.76 197.631 108.888 197.631 106.2C197.631 103.896 196.167 102.648 194.463 102.192C195.95 101.592 197.103 100.2 197.103 98.3044C197.103 95.6644 195.087 93.9608 192.135 93.9608H187.024C186.856 93.9608 186.712 94.1047 186.712 94.2729V110.447V110.447ZM187.84 101.736V95.0171H192.135C194.439 95.0171 195.879 96.2648 195.879 98.3531C195.879 100.321 194.559 101.736 192.303 101.736H187.84ZM187.816 109.752V102.769H192.304C194.583 102.769 196.407 104.041 196.407 106.177C196.407 108.264 194.775 109.752 192.448 109.752H187.816V109.752ZM209.217 110.447C209.217 110.616 209.361 110.76 209.529 110.76H219.152C219.32 110.76 219.464 110.616 219.464 110.447V110.064C219.464 109.896 219.32 109.752 219.152 109.752H210.369V102.648H217.976C218.144 102.648 218.288 102.505 218.288 102.337V101.928C218.288 101.76 218.144 101.616 217.976 101.616H210.369V94.9928H219.152C219.32 94.9928 219.464 94.8489 219.464 94.6811V94.2734C219.464 94.1047 219.32 93.9613 219.152 93.9613H209.529C209.361 93.9613 209.217 94.1051 209.217 94.2734V110.447ZM228.891 110.76H229.562C229.73 110.76 229.85 110.64 229.898 110.544L231.818 106.128H240.985L242.929 110.544C242.977 110.64 243.096 110.76 243.265 110.76H243.888C244.152 110.76 244.152 110.616 244.104 110.471L236.785 93.7691C236.714 93.6252 236.593 93.6013 236.474 93.6013H236.401C236.281 93.6013 236.161 93.673 236.113 93.7691L228.722 110.471C228.65 110.663 228.722 110.76 228.89 110.76H228.891ZM232.25 105.192L236.425 95.521H236.474L240.577 105.192H232.25ZM254.011 104.64C254.011 108.312 256.483 111 260.275 111C264.09 111 266.586 108.312 266.586 104.64V94.2734C266.586 94.1047 266.442 93.9613 266.274 93.9613H265.794C265.554 93.9613 265.458 94.0812 265.458 94.2734V104.544C265.458 107.64 263.49 109.895 260.275 109.895C257.083 109.895 255.139 107.615 255.139 104.52V94.2734C255.139 94.1047 254.995 93.9613 254.827 93.9613H254.324C254.156 93.9613 254.012 94.1051 254.012 94.2734V104.64H254.011ZM281.58 110.447C281.58 110.616 281.724 110.76 281.892 110.76H282.324C282.564 110.76 282.708 110.616 282.708 110.447V94.9933H287.315C287.508 94.9933 287.627 94.8494 287.627 94.6816V94.2738C287.627 94.1051 287.507 93.9617 287.315 93.9617H276.996C276.828 93.9617 276.684 94.0817 276.684 94.2738V94.6338C276.684 94.8498 276.756 94.9937 276.996 94.9937H281.58V110.448V110.447ZM302.333 110.447C302.333 110.832 302.837 110.76 303.149 110.76C303.317 110.76 303.461 110.616 303.461 110.447V102.577L309.7 94.3212C309.845 94.129 309.749 93.9613 309.508 93.9613H308.789C308.669 93.9613 308.549 94.0091 308.477 94.1051L302.909 101.569L297.438 94.1051C297.366 94.0095 297.245 93.9613 297.126 93.9613H296.406C296.166 93.9613 296.07 94.129 296.214 94.3212L302.333 102.6V110.447ZM334.485 109.032C334.797 109.32 336.716 111 339.572 111C342.332 111 344.803 109.128 344.803 106.728C344.803 103.944 342.716 102.792 339.428 101.665C337.005 100.872 335.445 99.9845 335.445 97.9449C335.445 96.5769 336.549 94.7528 339.5 94.7528C341.348 94.7528 342.956 95.8326 343.028 95.8809C343.268 96.0252 343.412 95.9531 343.556 95.7609C343.604 95.6649 343.676 95.5449 343.748 95.4488C343.915 95.1849 343.748 95.0172 343.652 94.945C343.652 94.945 341.9 93.7213 339.524 93.7213C335.781 93.7213 334.341 96.1691 334.341 97.9693C334.341 100.729 336.188 101.712 338.972 102.697C341.876 103.68 343.628 104.64 343.628 106.776C343.628 108.528 341.78 109.992 339.596 109.992C337.172 109.992 335.396 108.36 335.157 108.144C334.964 107.976 334.797 108.048 334.629 108.24L334.413 108.528C334.221 108.792 334.341 108.912 334.485 109.032V109.032ZM353.774 110.76H354.446C354.614 110.76 354.734 110.64 354.782 110.544L356.702 106.128H365.869L367.813 110.544C367.86 110.64 367.98 110.76 368.149 110.76H368.772C369.037 110.76 369.037 110.616 368.989 110.471L361.669 93.7691C361.597 93.6252 361.477 93.6013 361.357 93.6013H361.285C361.165 93.6013 361.045 93.673 360.997 93.7691L353.606 110.471C353.534 110.663 353.606 110.76 353.774 110.76H353.774ZM357.134 105.192L361.309 95.521H361.358L365.461 105.192H357.134ZM379.231 110.447C379.231 110.616 379.375 110.76 379.543 110.76H388.014C388.182 110.76 388.326 110.664 388.326 110.496V110.064C388.326 109.896 388.302 109.752 388.014 109.752H380.359V94.2738C380.359 94.1051 380.215 93.9617 380.071 93.9617H379.543C379.375 93.9617 379.231 94.1056 379.231 94.2738V110.448V110.447ZM397.057 102.384C397.057 107.208 400.896 111 405.695 111C410.519 111 414.359 107.208 414.359 102.384C414.359 97.5845 410.519 93.7208 405.695 93.7208C400.896 93.7208 397.057 97.5845 397.057 102.384ZM398.112 102.384C398.112 98.1849 401.496 94.7767 405.695 94.7767C409.895 94.7767 413.303 98.1849 413.303 102.384C413.303 106.584 409.895 109.944 405.695 109.944C401.496 109.944 398.112 106.584 398.112 102.384ZM425.801 110.447C425.801 110.616 425.945 110.76 426.113 110.76H426.569C426.737 110.76 426.881 110.616 426.881 110.447V95.857H426.905C438.303 110.927 438.496 111 438.519 111H438.832C439.023 111 439.215 110.903 439.215 110.687V94.2734C439.215 94.1047 439.071 93.9613 438.903 93.9613H438.423C438.256 93.9613 438.112 94.1051 438.112 94.2734V108.72C438.112 108.72 438.112 108.72 438.088 108.72L426.569 93.7208H426.162C425.97 93.7208 425.801 93.8413 425.801 94.033V110.447L425.801 110.447Z" fill="white"/>
<defs>
<linearGradient id="paint0_linear_100_15" x1="57.0738" y1="40.4792" x2="0" y2="40.4792" gradientUnits="userSpaceOnUse">
<stop stop-color="white"/>
<stop offset="1" stop-color="#9C9C9C"/>
</linearGradient>
<linearGradient id="paint1_linear_100_15" x1="144.509" y1="39.669" x2="67.7939" y2="39.669" gradientUnits="userSpaceOnUse">
<stop stop-color="white"/>
<stop offset="1" stop-color="#9C9C9C"/>
</linearGradient>
<linearGradient id="paint2_linear_100_15" x1="228.956" y1="40.4367" x2="170.258" y2="40.4367" gradientUnits="userSpaceOnUse">
<stop stop-color="white"/>
<stop offset="1" stop-color="#9C9C9C"/>
</linearGradient>
<linearGradient id="paint3_linear_100_15" x1="439.216" y1="40.4782" x2="376.771" y2="40.4782" gradientUnits="userSpaceOnUse">
<stop stop-color="white"/>
<stop offset="1" stop-color="#9C9C9C"/>
</linearGradient>
<linearGradient id="paint4_linear_100_15" x1="339.21" y1="40.528" x2="260.304" y2="40.528" gradientUnits="userSpaceOnUse">
<stop stop-color="white"/>
<stop offset="1" stop-color="#9C9C9C"/>
</linearGradient>
<linearGradient id="paint5_linear_100_15" x1="131.063" y1="71.5187" x2="94.1436" y2="71.5187" gradientUnits="userSpaceOnUse">
<stop stop-color="white"/>
<stop offset="1" stop-color="#9C9C9C"/>
</linearGradient>
</defs>
</svg>
